<svg xmlns="http://www.w3.org/2000/svg" xmlns:xlink="http://www.w3.org/1999/xlink" width="397" height="401" viewBox="0 0 397 401">
  <defs>
    <radialGradient id="radial-gradient" cx="0.797" cy="1.105" r="0.953" gradientTransform="matrix(0.012, -1, 1, 0.012, -0.875, 1.208)" gradientUnits="objectBoundingBox">
      <stop offset="0" stop-color="#fd5"/>
      <stop offset="0.127" stop-color="#ffe477"/>
      <stop offset="0.492" stop-color="#ff3920"/>
      <stop offset="1" stop-color="#ce48b3"/>
    </radialGradient>
  </defs>
  <g id="Group_281" data-name="Group 281" transform="translate(-5217 -5107)">
    <g id="Group_38" data-name="Group 38" transform="translate(1505 891)">
      <circle id="Ellipse_4" data-name="Ellipse 4" cx="3" cy="3" r="3" transform="translate(3917 4249)" fill="#f0b"/>
      <circle id="Ellipse_7" data-name="Ellipse 7" cx="1.5" cy="1.5" r="1.5" transform="translate(3809 4320)" fill="#f0b"/>
      <g id="Group_9" data-name="Group 9" transform="translate(3711.641 4215.701)">
        <rect id="instagram" width="397" height="401" rx="198.5" transform="translate(0.359 0.299)" fill="url(#radial-gradient)"/>
        <rect id="instagram-2" data-name="instagram" width="364" height="368" rx="182" transform="translate(17.359 17.299)" fill="#fff"/>
      </g>
      <circle id="Ellipse_2" data-name="Ellipse 2" cx="15.5" cy="15.5" r="15.5" transform="translate(4001 4299)" fill="#f0b"/>
      <circle id="Ellipse_3" data-name="Ellipse 3" cx="5.5" cy="5.5" r="5.5" transform="translate(3781 4511)" fill="#ee3e54"/>
      <circle id="Ellipse_5" data-name="Ellipse 5" cx="6.5" cy="6.5" r="6.5" transform="translate(4043 4443)" fill="#fe8c7e"/>
      <circle id="Ellipse_6" data-name="Ellipse 6" cx="3.5" cy="3.5" r="3.5" transform="translate(3799 4343)" fill="#f0b"/>
      <circle id="Ellipse_8" data-name="Ellipse 8" cx="2.5" cy="2.5" r="2.5" transform="translate(3803 4330)" fill="#f0b"/>
      <g id="Group_243" data-name="Group 243" transform="translate(0 -29)">
        <path id="Path_32" data-name="Path 32" d="M114.462,145.832A44.432,44.432,0,0,1,98,142.73C84.348,137.3,75.831,126.9,73.37,112.658c-2.571-14.921,1.548-34.214,11.6-54.332,9.3-18.627,23.178-36.819,38.057-49.894a2.361,2.361,0,0,1,3.917,1.8C126.77,29.913,135.023,44.2,143,58.017c5.172,8.949,10.513,18.192,13.3,28.631,5.263,19.619,1.239,36.618-11.365,47.863a46.078,46.078,0,0,1-30.486,11.353Zm7.911-130.4C96.5,40.088,72.937,82.413,78.015,111.867c2.2,12.718,9.506,21.62,21.737,26.49,13.765,5.474,31.059,2.435,42.068-7.4,11.194-9.989,14.724-25.3,9.939-43.1-2.648-9.833-7.586-18.41-12.835-27.5-7.586-13.138-15.406-26.693-16.551-44.948Zm0,0" transform="translate(3794.913 4300.644)" fill="#5a99d1"/>
        <path id="Path_33" data-name="Path 33" d="M171.154,285.23h-.014a2.452,2.452,0,0,1-2.678-2.3,2.4,2.4,0,0,1,2.461-2.5h.433a2.4,2.4,0,0,1,2.447,2.512,2.428,2.428,0,0,1-2.662,2.263Zm0,0" transform="translate(3738.592 4140.449)" fill="#5a99d1"/>
        <path id="Path_34" data-name="Path 34" d="M129.707,250.562a2.422,2.422,0,0,1-1.347-.419c-7.308-5.1-10.7-12.967-9.089-21a2.354,2.354,0,1,1,4.614.931c-1.255,6.235,1.363,12.144,7.167,16.191a2.359,2.359,0,0,1-1.346,4.3Zm0,0" transform="translate(3767.731 4171.705)" fill="#5a99d1"/>
      </g>
      <text id="_" data-name="&lt;" transform="translate(3831 4550)" fill="#f0b" font-size="55" font-family="Nunito-Regular, Nunito"><tspan x="-16.5" y="0">&lt;</tspan></text>
      <g id="Group_245" data-name="Group 245" transform="translate(-49 -61)">
        <circle id="Ellipse_9" data-name="Ellipse 9" cx="3.5" cy="3.5" r="3.5" transform="translate(3959 4563)" fill="#f0b"/>
        <circle id="Ellipse_10" data-name="Ellipse 10" cx="1.5" cy="1.5" r="1.5" transform="translate(3959 4580)" fill="#f0b"/>
        <circle id="Ellipse_11" data-name="Ellipse 11" cx="2.5" cy="2.5" r="2.5" transform="translate(3976 4567)" fill="#f0b"/>
      </g>
    </g>
    <text id="_2" data-name="/&gt;" transform="translate(5507 5442)" fill="#f0b" font-size="55" font-family="Nunito-Regular, Nunito"><tspan x="-24.282" y="0">/&gt;</tspan></text>
    <g id="We_help_Startu-Business_to_grow_fat_with_low_cost" data-name="We help Startu-Business to grow fat with low cost" transform="translate(5324.303 5115.115)">
      <g id="Group_248" data-name="Group 248" transform="translate(3.608 234.97)">
        <g id="Group_247" data-name="Group 247">
          <g id="Group_246" data-name="Group 246">
            <path id="Path_434" data-name="Path 434" d="M36.959-129.3a9.528,9.528,0,0,1-.764,3.8,9.861,9.861,0,0,1-2.1,3.108,9.778,9.778,0,0,1-3.129,2.093,9.687,9.687,0,0,1-3.822.764H12.2V-154.5h13.66a8.281,8.281,0,0,1,3.352.69,8.919,8.919,0,0,1,2.765,1.874,8.85,8.85,0,0,1,1.874,2.787,8.573,8.573,0,0,1,.69,3.426,11.015,11.015,0,0,1-.739,4.12,7.3,7.3,0,0,1-2.419,3.129,7.622,7.622,0,0,1,4.19,3.529A11.433,11.433,0,0,1,36.959-129.3ZM17.334-140.349q1.969.05,3.649.05h4.929a4.111,4.111,0,0,0,3.158-1.4,4.841,4.841,0,0,0,1.284-3.381,4.8,4.8,0,0,0-1.284-3.4,4.142,4.142,0,0,0-3.158-1.383H17.334Zm0,16.029a13.912,13.912,0,0,0,1.528.049h8.285a4.4,4.4,0,0,0,1.948-.442,5.237,5.237,0,0,0,1.6-1.209,5.682,5.682,0,0,0,1.086-1.8,6.176,6.176,0,0,0,.4-2.221,5.955,5.955,0,0,0-.4-2.192A5.763,5.763,0,0,0,30.7-133.91a5.181,5.181,0,0,0-1.6-1.209,4.383,4.383,0,0,0-1.948-.446H17.334Zm0,0" transform="translate(-12.203 154.5)" fill="#004aad"/>
          </g>
        </g>
      </g>
      <g id="Group_251" data-name="Group 251" transform="translate(31.915 245.769)">
        <g id="Group_250" data-name="Group 250" transform="translate(0 0)">
          <g id="Group_249" data-name="Group 249">
            <path id="Path_435" data-name="Path 435" d="M30.205-106.24v23.624H26.16l-.739-2.712a7.8,7.8,0,0,1-3.158,2.465,9.65,9.65,0,0,1-3.893.838,11.155,11.155,0,0,1-4.615-.962,11.857,11.857,0,0,1-3.748-2.638,12.6,12.6,0,0,1-2.539-3.943A12.535,12.535,0,0,1,6.531-94.4a12.523,12.523,0,0,1,.937-4.834,12.6,12.6,0,0,1,2.539-3.946,11.87,11.87,0,0,1,3.748-2.638,11.155,11.155,0,0,1,4.615-.962,9.74,9.74,0,0,1,3.8.764,8.867,8.867,0,0,1,3.253,2.394l.739-2.617ZM18.37-86.265a5.976,5.976,0,0,0,2.709-.64,6.98,6.98,0,0,0,2.221-1.75,8.508,8.508,0,0,0,1.478-2.588,9.094,9.094,0,0,0,.545-3.158,9.079,9.079,0,0,0-.545-3.158,8.53,8.53,0,0,0-1.478-2.588,6.931,6.931,0,0,0-2.221-1.75,5.957,5.957,0,0,0-2.709-.644,5.983,5.983,0,0,0-2.716.644,6.927,6.927,0,0,0-2.217,1.75,8.557,8.557,0,0,0-1.482,2.588,9.119,9.119,0,0,0-.541,3.158,9.133,9.133,0,0,0,.541,3.158,8.535,8.535,0,0,0,1.482,2.588,6.976,6.976,0,0,0,2.217,1.75A6,6,0,0,0,18.37-86.265Zm0,0" transform="translate(-6.531 106.781)" fill="#004aad"/>
          </g>
        </g>
      </g>
      <g id="Group_254" data-name="Group 254" transform="translate(60.967 245.769)">
        <g id="Group_253" data-name="Group 253" transform="translate(0 0)">
          <g id="Group_252" data-name="Group 252">
            <path id="Path_436" data-name="Path 436" d="M28.149-101.848l-.693-.3q-.294-.1-.69-.2a3.446,3.446,0,0,0-.838-.1,7.423,7.423,0,0,0-2.663.47,6.716,6.716,0,0,0-2.122,1.259,5.954,5.954,0,0,0-1.407,1.849,5.039,5.039,0,0,0-.516,2.242l-.05,14.006H14.391V-106.24h3.794l.987,2.617a7.279,7.279,0,0,1,2.588-2.295,8.428,8.428,0,0,1,4.021-.863,17.06,17.06,0,0,1,3.6.442Zm0,0" transform="translate(-14.391 106.781)" fill="#004aad"/>
          </g>
        </g>
      </g>
      <g id="Group_257" data-name="Group 257" transform="translate(77.831 245.769)">
        <g id="Group_256" data-name="Group 256" transform="translate(0 0)">
          <g id="Group_255" data-name="Group 255">
            <path id="Path_437" data-name="Path 437" d="M30.205-106.24v23.624H26.16l-.739-2.712a7.8,7.8,0,0,1-3.158,2.465,9.65,9.65,0,0,1-3.893.838,11.155,11.155,0,0,1-4.615-.962,11.857,11.857,0,0,1-3.748-2.638,12.6,12.6,0,0,1-2.539-3.943A12.535,12.535,0,0,1,6.531-94.4a12.523,12.523,0,0,1,.937-4.834,12.6,12.6,0,0,1,2.539-3.946,11.87,11.87,0,0,1,3.748-2.638,11.155,11.155,0,0,1,4.615-.962,9.74,9.74,0,0,1,3.8.764,8.867,8.867,0,0,1,3.253,2.394l.739-2.617ZM18.37-86.265a5.976,5.976,0,0,0,2.709-.64,6.98,6.98,0,0,0,2.221-1.75,8.508,8.508,0,0,0,1.478-2.588,9.094,9.094,0,0,0,.545-3.158,9.079,9.079,0,0,0-.545-3.158,8.53,8.53,0,0,0-1.478-2.588,6.931,6.931,0,0,0-2.221-1.75,5.957,5.957,0,0,0-2.709-.644,5.983,5.983,0,0,0-2.716.644,6.927,6.927,0,0,0-2.217,1.75,8.557,8.557,0,0,0-1.482,2.588,9.119,9.119,0,0,0-.541,3.158,9.133,9.133,0,0,0,.541,3.158,8.535,8.535,0,0,0,1.482,2.588,6.976,6.976,0,0,0,2.217,1.75A6,6,0,0,0,18.37-86.265Zm0,0" transform="translate(-6.531 106.781)" fill="#004aad"/>
          </g>
        </g>
      </g>
      <g id="Group_260" data-name="Group 260" transform="translate(104.563 246.31)">
        <g id="Group_259" data-name="Group 259" transform="translate(0 0)">
          <g id="Group_258" data-name="Group 258">
            <path id="Path_438" data-name="Path 438" d="M27.96-80.767H22.143l-6.068-8.285L9.961-80.767H4.141L13.165-93,4.781-104.391H10.6l5.474,7.4,5.424-7.4h5.82L18.985-93Zm0,0" transform="translate(-4.141 104.391)" fill="#004aad"/>
          </g>
        </g>
      </g>
      <g id="Group_263" data-name="Group 263" transform="translate(132.083 246.31)">
        <g id="Group_262" data-name="Group 262" transform="translate(0 0)">
          <g id="Group_261" data-name="Group 261">
            <path id="Path_439" data-name="Path 439" d="M28.69-82.888A10.649,10.649,0,0,1,25.8-81.014a8.9,8.9,0,0,1-3.674.739,13.225,13.225,0,0,1-2.91-.371,7.732,7.732,0,0,1-3.034-1.45,8.591,8.591,0,0,1-2.366-2.984,10.986,10.986,0,0,1-.962-4.958v-14.353H17.4v14.353a6.415,6.415,0,0,0,.467,2.588,4.633,4.633,0,0,0,1.234,1.7,4.882,4.882,0,0,0,1.75.937,7.032,7.032,0,0,0,2.023.294,6.531,6.531,0,0,0,1.8-.294,5.947,5.947,0,0,0,1.9-.962,5.82,5.82,0,0,0,1.5-1.7,4.823,4.823,0,0,0,.619-2.514v-14.4h4.784v23.624h-3.8Zm0,0" transform="translate(-12.859 104.391)" fill="#004aad"/>
          </g>
        </g>
      </g>
      <g id="Group_266" data-name="Group 266" transform="translate(158.221 245.769)">
        <g id="Group_265" data-name="Group 265" transform="translate(0 0)">
          <g id="Group_264" data-name="Group 264">
            <path id="Path_440" data-name="Path 440" d="M16.55-82.616H11.766V-106.24h3.8l.987,2.072a9.813,9.813,0,0,1,2.861-1.874,8.952,8.952,0,0,1,3.649-.739,12.481,12.481,0,0,1,2.91.4A7.991,7.991,0,0,1,29-104.907,8.55,8.55,0,0,1,31.37-101.9a11.151,11.151,0,0,1,.962,4.979v14.3H27.795V-96.968a6.383,6.383,0,0,0-.47-2.588,4.578,4.578,0,0,0-1.231-1.7,4.632,4.632,0,0,0-1.726-.912,7.316,7.316,0,0,0-2-.272,6.471,6.471,0,0,0-1.8.3,5.946,5.946,0,0,0-1.9.962,5.935,5.935,0,0,0-1.506,1.676,4.71,4.71,0,0,0-.615,2.489Zm0,0" transform="translate(-11.766 106.781)" fill="#004aad"/>
          </g>
        </g>
      </g>
      <g id="Group_269" data-name="Group 269" transform="translate(39.191 291.783)">
        <g id="Group_268" data-name="Group 268">
          <g id="Group_267" data-name="Group 267">
            <path id="Path_441" data-name="Path 441" d="M10.563-149.864H1.094V-154.5H25.21v4.636H15.691v30.329H10.563Zm0,0" transform="translate(-1.094 154.5)" fill="#f0b"/>
          </g>
        </g>
      </g>
      <g id="Group_272" data-name="Group 272" transform="translate(66.314 302.582)">
        <g id="Group_271" data-name="Group 271" transform="translate(0 0)">
          <g id="Group_270" data-name="Group 270">
            <path id="Path_442" data-name="Path 442" d="M19.518-82.025a12.086,12.086,0,0,1-4.809-.962,12.418,12.418,0,0,1-3.921-2.638,12.306,12.306,0,0,1-2.638-3.943A12.249,12.249,0,0,1,7.188-94.4,12.825,12.825,0,0,1,8.1-99.235a12.72,12.72,0,0,1,2.465-3.946,11.527,11.527,0,0,1,3.628-2.638,10.414,10.414,0,0,1,4.438-.962,11.668,11.668,0,0,1,4.463.838,9.162,9.162,0,0,1,3.55,2.613,12.57,12.57,0,0,1,2.344,4.512,22.474,22.474,0,0,1,.838,6.535H12.269a8,8,0,0,0,1.082,2.394A8.522,8.522,0,0,0,15.1-87.966a7.67,7.67,0,0,0,2.267,1.259,7.888,7.888,0,0,0,2.638.442,8.7,8.7,0,0,0,3.476-.69,8.723,8.723,0,0,0,2.74-1.825l2.96,2.956a12.883,12.883,0,0,1-4.219,2.765A14.1,14.1,0,0,1,19.518-82.025Zm-.888-20.417a5.263,5.263,0,0,0-2.146.446,6.783,6.783,0,0,0-1.874,1.234,7.584,7.584,0,0,0-1.478,1.874,8.744,8.744,0,0,0-.912,2.366H24.695a7.5,7.5,0,0,0-.541-2.267,5.959,5.959,0,0,0-1.234-1.9,5.78,5.78,0,0,0-1.849-1.284A5.977,5.977,0,0,0,18.63-102.442Zm0,0" transform="translate(-7.188 106.781)" fill="#f0b"/>
          </g>
        </g>
      </g>
      <g id="Group_275" data-name="Group 275" transform="translate(92.602 302.582)">
        <g id="Group_274" data-name="Group 274" transform="translate(0 0)">
          <g id="Group_273" data-name="Group 273">
            <path id="Path_443" data-name="Path 443" d="M19.679-82.025a11.147,11.147,0,0,1-4.611-.962,11.857,11.857,0,0,1-3.748-2.638,12.6,12.6,0,0,1-2.539-3.943A12.535,12.535,0,0,1,7.844-94.4a12.523,12.523,0,0,1,.937-4.834,12.6,12.6,0,0,1,2.539-3.946,11.87,11.87,0,0,1,3.748-2.638,11.147,11.147,0,0,1,4.611-.962,11.067,11.067,0,0,1,5.276,1.284A11.805,11.805,0,0,1,29-102l-3.352,2.613a7.09,7.09,0,0,0-2.493-2.242,6.658,6.658,0,0,0-3.228-.817,6.605,6.605,0,0,0-2.811.619,7.171,7.171,0,0,0-2.316,1.7,8.1,8.1,0,0,0-1.556,2.564,8.755,8.755,0,0,0-.566,3.158,8.769,8.769,0,0,0,.566,3.158A8.389,8.389,0,0,0,14.8-88.655a7.372,7.372,0,0,0,2.316,1.75,6.409,6.409,0,0,0,2.811.64,6.238,6.238,0,0,0,3.5-1.036,7.963,7.963,0,0,0,2.567-2.762L29.248-87.2a11.725,11.725,0,0,1-4.095,3.773A11.047,11.047,0,0,1,19.679-82.025Zm0,0" transform="translate(-7.844 106.781)" fill="#f0b"/>
          </g>
        </g>
      </g>
      <g id="Group_278" data-name="Group 278" transform="translate(118.642 290.747)">
        <g id="Group_277" data-name="Group 277" transform="translate(0 0)">
          <g id="Group_276" data-name="Group 276">
            <path id="Path_444" data-name="Path 444" d="M16.987-123.077H12.2v-36h4.784v14.547a8.008,8.008,0,0,1,2.783-2.093,8.6,8.6,0,0,1,3.38-.619,9.829,9.829,0,0,1,4.413.962,9.993,9.993,0,0,1,3.327,2.638,11.611,11.611,0,0,1,2.1,3.946,15.934,15.934,0,0,1,.718,4.834v11.786H28.872v-11.786a10.378,10.378,0,0,0-.47-3.158,8.527,8.527,0,0,0-1.28-2.564,6.3,6.3,0,0,0-1.874-1.7,4.484,4.484,0,0,0-2.295-.619,5.465,5.465,0,0,0-2.069.421,5.253,5.253,0,0,0-1.9,1.354,7.413,7.413,0,0,0-1.432,2.468,10.681,10.681,0,0,0-.566,3.7Zm0,0" transform="translate(-12.203 159.078)" fill="#f0b"/>
          </g>
        </g>
      </g>
    </g>
  </g>
</svg>
