<svg xmlns="http://www.w3.org/2000/svg" xmlns:xlink="http://www.w3.org/1999/xlink" width="927.273" height="401" viewBox="0 0 927.273 401">
  <defs>
    <radialGradient id="radial-gradient" cx="0.797" cy="1.105" r="0.953" gradientTransform="matrix(0.012, -1, 1, 0.012, -0.875, 1.208)" gradientUnits="objectBoundingBox">
      <stop offset="0" stop-color="#fd5"/>
      <stop offset="0.127" stop-color="#ffe477"/>
      <stop offset="0.492" stop-color="#ff3920"/>
      <stop offset="1" stop-color="#ce48b3"/>
    </radialGradient>
  </defs>
  <g id="Group_279" data-name="Group 279" transform="translate(-5150 -4748)">
    <circle id="Ellipse_7" data-name="Ellipse 7" cx="1.5" cy="1.5" r="1.5" transform="translate(5247 4852)" fill="#f0b"/>
    <g id="Group_9" data-name="Group 9" transform="translate(5149.642 4747.701)">
      <rect id="instagram" width="397" height="401" rx="198.5" transform="translate(0.359 0.299)" fill="url(#radial-gradient)"/>
      <rect id="instagram-2" data-name="instagram" width="364" height="368" rx="182" transform="translate(17.359 17.299)" fill="#fff"/>
    </g>
    <circle id="Ellipse_2" data-name="Ellipse 2" cx="15.5" cy="15.5" r="15.5" transform="translate(5439 4831)" fill="#f0b"/>
    <circle id="Ellipse_3" data-name="Ellipse 3" cx="5.5" cy="5.5" r="5.5" transform="translate(5219 5043)" fill="#ee3e54"/>
    <circle id="Ellipse_5" data-name="Ellipse 5" cx="6.5" cy="6.5" r="6.5" transform="translate(5481 4975)" fill="#fe8c7e"/>
    <circle id="Ellipse_6" data-name="Ellipse 6" cx="3.5" cy="3.5" r="3.5" transform="translate(5237 4875)" fill="#f0b"/>
    <circle id="Ellipse_8" data-name="Ellipse 8" cx="2.5" cy="2.5" r="2.5" transform="translate(5241 4862)" fill="#f0b"/>
    <g id="Group_243" data-name="Group 243" transform="translate(1413.878 534.754)">
      <path id="Path_32" data-name="Path 32" d="M137.953,223.306a69.379,69.379,0,0,1-25.7-4.844c-21.322-8.475-34.621-24.725-38.464-46.957-4.014-23.3,2.417-53.425,18.108-84.837,14.529-29.085,36.192-57.491,59.425-77.908a3.686,3.686,0,0,1,6.116,2.809c-.267,30.733,12.62,53.038,25.069,74.616,8.076,13.974,16.415,28.407,20.769,44.706,8.218,30.635,1.934,57.178-17.746,74.737-12.934,11.551-30.293,17.728-47.6,17.728ZM150.306,19.683c-40.4,38.506-77.194,104.6-69.264,150.587,3.433,19.858,14.843,33.758,33.942,41.363,21.493,8.548,48.5,3.8,65.688-11.551,17.479-15.6,22.992-39.5,15.52-67.3-4.135-15.354-11.846-28.746-20.042-42.938-11.846-20.514-24.055-41.68-25.844-70.185Zm0,0" transform="translate(3794.913 4300.644)" fill="#0087ff"/>
      <path id="Path_33" data-name="Path 33" d="M172.666,287.92h-.023a3.829,3.829,0,0,1-4.182-3.584c0-.364-.048-3.561,3.843-3.9h.676c3.893.387,3.846,3.584,3.82,3.923a3.791,3.791,0,0,1-4.157,3.534Zm0,0" transform="translate(3760.779 4203.555)" fill="#0087ff"/>
      <path id="Path_34" data-name="Path 34" d="M135.787,263.65a3.782,3.782,0,0,1-2.1-.654c-11.411-7.97-16.707-20.248-14.192-32.793a3.675,3.675,0,1,1,7.205,1.454c-1.959,9.735,2.128,18.963,11.192,25.282a3.683,3.683,0,0,1-2.1,6.71Zm0,0" transform="translate(3778.439 4222.498)" fill="#0087ff"/>
    </g>
    <g id="Group_245" data-name="Group 245" transform="translate(1377 445)">
      <circle id="Ellipse_9" data-name="Ellipse 9" cx="3.5" cy="3.5" r="3.5" transform="translate(3959 4563)" fill="#f0b"/>
      <circle id="Ellipse_10" data-name="Ellipse 10" cx="1.5" cy="1.5" r="1.5" transform="translate(3959 4580)" fill="#f0b"/>
      <circle id="Ellipse_11" data-name="Ellipse 11" cx="2.5" cy="2.5" r="2.5" transform="translate(3976 4567)" fill="#f0b"/>
    </g>
    <text id="_" data-name="&lt;" transform="translate(5246 4984)" fill="#f0b" font-size="55" font-family="Nunito-Regular, Nunito"><tspan x="-16.5" y="0">&lt;</tspan></text>
    <text id="_2" data-name="/&gt;" transform="translate(5453 4985)" fill="#f0b" font-size="55" font-family="Nunito-Regular, Nunito"><tspan x="-24.282" y="0">/&gt;</tspan></text>
    <g id="We_help_Startu-Business_to_grow_fat_with_low_cost" data-name="We help Startu-Business to grow fat with low cost" transform="translate(5573.907 4590.115)">
      <g id="Group_248" data-name="Group 248" transform="translate(8.2 234.97)">
        <g id="Group_247" data-name="Group 247">
          <g id="Group_246" data-name="Group 246">
            <path id="Path_434" data-name="Path 434" d="M82.179-83.275A26.931,26.931,0,0,1,80.02-72.53a27.874,27.874,0,0,1-5.927,8.786,27.637,27.637,0,0,1-8.846,5.917,27.38,27.38,0,0,1-10.8,2.159H12.2V-154.5H50.814a23.408,23.408,0,0,1,9.475,1.949,25.209,25.209,0,0,1,7.816,5.3,25.015,25.015,0,0,1,5.3,7.876,24.232,24.232,0,0,1,1.949,9.685,31.135,31.135,0,0,1-2.089,11.645,20.633,20.633,0,0,1-6.836,8.846,21.545,21.545,0,0,1,11.844,9.975A32.318,32.318,0,0,1,82.179-83.275ZM26.706-114.5q5.566.143,10.315.14H50.954a11.621,11.621,0,0,0,8.926-3.968,13.685,13.685,0,0,0,3.628-9.556,13.57,13.57,0,0,0-3.628-9.6,11.708,11.708,0,0,0-8.926-3.909H26.706Zm0,45.308a39.322,39.322,0,0,0,4.318.14H54.443A12.447,12.447,0,0,0,59.95-70.3a14.8,14.8,0,0,0,4.528-3.418,16.061,16.061,0,0,0,3.069-5.088,17.457,17.457,0,0,0,1.12-6.277,16.834,16.834,0,0,0-1.12-6.2A16.29,16.29,0,0,0,64.478-96.3a14.646,14.646,0,0,0-4.528-3.418,12.388,12.388,0,0,0-5.507-1.259H26.706Zm0,0" transform="translate(-12.203 154.5)" fill="#004aad"/>
          </g>
        </g>
      </g>
      <g id="Group_251" data-name="Group 251" transform="translate(88.215 265.495)">
        <g id="Group_250" data-name="Group 250" transform="translate(0 0)">
          <g id="Group_249" data-name="Group 249" transform="translate(0)">
            <path id="Path_435" data-name="Path 435" d="M73.449-105.252v66.778H62.014l-2.089-7.666A22.061,22.061,0,0,1,51-39.174a27.278,27.278,0,0,1-11,2.369,31.53,31.53,0,0,1-13.044-2.719A33.514,33.514,0,0,1,16.356-46.98,35.628,35.628,0,0,1,9.18-58.125,35.433,35.433,0,0,1,6.531-71.788,35.4,35.4,0,0,1,9.18-85.452a35.618,35.618,0,0,1,7.176-11.155,33.551,33.551,0,0,1,10.595-7.456,31.531,31.531,0,0,1,13.044-2.719,27.532,27.532,0,0,1,10.735,2.159,25.064,25.064,0,0,1,9.2,6.767l2.089-7.4ZM39.995-48.789A16.892,16.892,0,0,0,47.651-50.6a19.729,19.729,0,0,0,6.277-4.948,24.05,24.05,0,0,0,4.178-7.316,25.7,25.7,0,0,0,1.539-8.926,25.664,25.664,0,0,0-1.539-8.926,24.112,24.112,0,0,0-4.178-7.316,19.59,19.59,0,0,0-6.277-4.948A16.837,16.837,0,0,0,39.995-94.8a16.911,16.911,0,0,0-7.676,1.819,19.579,19.579,0,0,0-6.267,4.948,24.186,24.186,0,0,0-4.188,7.316,25.776,25.776,0,0,0-1.529,8.926,25.816,25.816,0,0,0,1.529,8.926,24.124,24.124,0,0,0,4.188,7.316A19.718,19.718,0,0,0,32.319-50.6,16.967,16.967,0,0,0,39.995-48.789Zm0,0" transform="translate(-6.531 106.781)" fill="#004aad"/>
          </g>
        </g>
      </g>
      <g id="Group_254" data-name="Group 254" transform="translate(170.334 265.495)">
        <g id="Group_253" data-name="Group 253" transform="translate(0 0)">
          <g id="Group_252" data-name="Group 252" transform="translate(0)">
            <path id="Path_436" data-name="Path 436" d="M53.282-92.838l-1.959-.84q-.832-.277-1.949-.56A9.741,9.741,0,0,0,47-94.517a20.982,20.982,0,0,0-7.526,1.329,18.983,18.983,0,0,0-6,3.558A16.83,16.83,0,0,0,29.5-84.4a14.242,14.242,0,0,0-1.459,6.337L27.9-38.474H14.391v-66.778H25.115l2.789,7.4a20.575,20.575,0,0,1,7.316-6.487,23.823,23.823,0,0,1,11.365-2.438,48.22,48.22,0,0,1,10.175,1.249Zm0,0" transform="translate(-14.391 106.781)" fill="#004aad"/>
          </g>
        </g>
      </g>
      <g id="Group_257" data-name="Group 257" transform="translate(218.002 265.495)">
        <g id="Group_256" data-name="Group 256" transform="translate(0 0)">
          <g id="Group_255" data-name="Group 255" transform="translate(0)">
            <path id="Path_437" data-name="Path 437" d="M73.449-105.252v66.778H62.014l-2.089-7.666A22.061,22.061,0,0,1,51-39.174a27.278,27.278,0,0,1-11,2.369,31.53,31.53,0,0,1-13.044-2.719A33.514,33.514,0,0,1,16.356-46.98,35.628,35.628,0,0,1,9.18-58.125,35.433,35.433,0,0,1,6.531-71.788,35.4,35.4,0,0,1,9.18-85.452a35.618,35.618,0,0,1,7.176-11.155,33.551,33.551,0,0,1,10.595-7.456,31.531,31.531,0,0,1,13.044-2.719,27.532,27.532,0,0,1,10.735,2.159,25.064,25.064,0,0,1,9.2,6.767l2.089-7.4ZM39.995-48.789A16.892,16.892,0,0,0,47.651-50.6a19.729,19.729,0,0,0,6.277-4.948,24.05,24.05,0,0,0,4.178-7.316,25.7,25.7,0,0,0,1.539-8.926,25.664,25.664,0,0,0-1.539-8.926,24.112,24.112,0,0,0-4.178-7.316,19.59,19.59,0,0,0-6.277-4.948A16.837,16.837,0,0,0,39.995-94.8a16.911,16.911,0,0,0-7.676,1.819,19.579,19.579,0,0,0-6.267,4.948,24.186,24.186,0,0,0-4.188,7.316,25.776,25.776,0,0,0-1.529,8.926,25.816,25.816,0,0,0,1.529,8.926,24.124,24.124,0,0,0,4.188,7.316A19.718,19.718,0,0,0,32.319-50.6,16.967,16.967,0,0,0,39.995-48.789Zm0,0" transform="translate(-6.531 106.781)" fill="#004aad"/>
          </g>
        </g>
      </g>
      <g id="Group_260" data-name="Group 260" transform="translate(293.564 267.024)">
        <g id="Group_259" data-name="Group 259" transform="translate(0 0)">
          <g id="Group_258" data-name="Group 258" transform="translate(0 0)">
            <path id="Path_438" data-name="Path 438" d="M71.468-37.613H55.026L37.874-61.032,20.593-37.613H4.141L29.648-72.186l-23.7-32.2H22.4l15.472,20.91,15.333-20.91H69.659L46.1-72.186Zm0,0" transform="translate(-4.141 104.391)" fill="#004aad"/>
          </g>
        </g>
      </g>
      <g id="Group_263" data-name="Group 263" transform="translate(371.353 267.024)">
        <g id="Group_262" data-name="Group 262" transform="translate(0 0)">
          <g id="Group_261" data-name="Group 261" transform="translate(0 0)">
            <path id="Path_439" data-name="Path 439" d="M57.608-43.61a30.1,30.1,0,0,1-8.156,5.3,25.164,25.164,0,0,1-10.385,2.089,37.382,37.382,0,0,1-8.226-1.049,21.856,21.856,0,0,1-8.576-4.1,24.283,24.283,0,0,1-6.687-8.436q-2.721-5.367-2.719-14.013v-40.57H25.683v40.57A18.133,18.133,0,0,0,27-56.5a13.1,13.1,0,0,0,3.488,4.818,13.8,13.8,0,0,0,4.948,2.649,19.879,19.879,0,0,0,5.717.83,18.461,18.461,0,0,0,5.088-.83,16.809,16.809,0,0,0,5.367-2.719,16.45,16.45,0,0,0,4.248-4.818,13.634,13.634,0,0,0,1.749-7.107v-40.71H71.131v66.778H60.4Zm0,0" transform="translate(-12.859 104.391)" fill="#004aad"/>
          </g>
        </g>
      </g>
      <g id="Group_266" data-name="Group 266" transform="translate(445.235 265.495)">
        <g id="Group_265" data-name="Group 265" transform="translate(0 0)">
          <g id="Group_264" data-name="Group 264" transform="translate(0)">
            <path id="Path_440" data-name="Path 440" d="M25.289-38.474H11.766v-66.778H22.5l2.789,5.857a27.738,27.738,0,0,1,8.086-5.3,25.3,25.3,0,0,1,10.315-2.089,35.28,35.28,0,0,1,8.226,1.119,22.589,22.589,0,0,1,8.566,4.178,24.169,24.169,0,0,1,6.7,8.506Q69.9-87.539,69.9-78.9v40.43H57.074v-40.57a18.042,18.042,0,0,0-1.329-7.316,12.941,12.941,0,0,0-3.478-4.808,13.094,13.094,0,0,0-4.878-2.579,20.68,20.68,0,0,0-5.647-.77,18.293,18.293,0,0,0-5.088.84,16.808,16.808,0,0,0-5.367,2.719,16.776,16.776,0,0,0-4.258,4.738,13.314,13.314,0,0,0-1.739,7.037Zm0,0" transform="translate(-11.766 106.781)" fill="#004aad"/>
          </g>
        </g>
      </g>
      <g id="Group_269" data-name="Group 269" transform="translate(1.094 381.298)">
        <g id="Group_268" data-name="Group 268">
          <g id="Group_267" data-name="Group 267">
            <path id="Path_441" data-name="Path 441" d="M27.861-141.4H1.094v-13.1H69.26v13.1H42.354v85.729H27.861Zm0,0" transform="translate(-1.094 154.5)" fill="#f0b"/>
          </g>
        </g>
      </g>
      <g id="Group_272" data-name="Group 272" transform="translate(77.762 411.824)">
        <g id="Group_271" data-name="Group 271" transform="translate(0 0)">
          <g id="Group_270" data-name="Group 270" transform="translate(0)">
            <path id="Path_442" data-name="Path 442" d="M42.041-36.805a34.161,34.161,0,0,1-13.593-2.719A35.1,35.1,0,0,1,17.363-46.98,34.784,34.784,0,0,1,9.906-58.125,34.625,34.625,0,0,1,7.188-71.788,36.252,36.252,0,0,1,9.766-85.452a35.954,35.954,0,0,1,6.967-11.155,32.582,32.582,0,0,1,10.255-7.456,29.437,29.437,0,0,1,12.544-2.719,32.981,32.981,0,0,1,12.614,2.369,25.9,25.9,0,0,1,10.035,7.386,35.531,35.531,0,0,1,6.627,12.754A63.525,63.525,0,0,1,71.177-65.8H21.55a22.626,22.626,0,0,0,3.059,6.767A24.088,24.088,0,0,0,29.567-53.6a21.68,21.68,0,0,0,6.407,3.558,22.3,22.3,0,0,0,7.456,1.249,24.586,24.586,0,0,0,9.825-1.949A24.656,24.656,0,0,0,61-55.9l8.366,8.356a36.415,36.415,0,0,1-11.924,7.816A39.85,39.85,0,0,1,42.041-36.805ZM39.532-94.517a14.877,14.877,0,0,0-6.067,1.259,19.173,19.173,0,0,0-5.3,3.488,21.438,21.438,0,0,0-4.178,5.3,24.717,24.717,0,0,0-2.579,6.687H56.673a21.2,21.2,0,0,0-1.529-6.407,16.844,16.844,0,0,0-3.488-5.367,16.339,16.339,0,0,0-5.227-3.628A16.9,16.9,0,0,0,39.532-94.517Zm0,0" transform="translate(-7.188 106.781)" fill="#f0b"/>
          </g>
        </g>
      </g>
      <g id="Group_275" data-name="Group 275" transform="translate(152.066 411.824)">
        <g id="Group_274" data-name="Group 274" transform="translate(0 0)">
          <g id="Group_273" data-name="Group 273" transform="translate(0)">
            <path id="Path_443" data-name="Path 443" d="M41.3-36.805a31.509,31.509,0,0,1-13.034-2.719A33.514,33.514,0,0,1,17.669-46.98a35.628,35.628,0,0,1-7.176-11.145A35.433,35.433,0,0,1,7.844-71.788a35.4,35.4,0,0,1,2.649-13.663,35.618,35.618,0,0,1,7.176-11.155,33.551,33.551,0,0,1,10.595-7.456A31.51,31.51,0,0,1,41.3-106.781a31.282,31.282,0,0,1,14.913,3.628,33.369,33.369,0,0,1,11.434,9.895l-9.475,7.386a20.041,20.041,0,0,0-7.047-6.337A18.821,18.821,0,0,0,42-94.517a18.67,18.67,0,0,0-7.946,1.749A20.27,20.27,0,0,0,27.5-87.96a22.885,22.885,0,0,0-4.4,7.246,24.747,24.747,0,0,0-1.6,8.926,24.786,24.786,0,0,0,1.6,8.926,23.713,23.713,0,0,0,4.4,7.316A20.837,20.837,0,0,0,34.051-50.6,18.117,18.117,0,0,0,42-48.789a17.633,17.633,0,0,0,9.9-2.929,22.507,22.507,0,0,0,7.257-7.806l9.2,8.086A33.144,33.144,0,0,1,56.77-40.773,31.227,31.227,0,0,1,41.3-36.805Zm0,0" transform="translate(-7.844 106.781)" fill="#f0b"/>
          </g>
        </g>
      </g>
      <g id="Group_278" data-name="Group 278" transform="translate(225.673 378.37)">
        <g id="Group_277" data-name="Group 277" transform="translate(0)">
          <g id="Group_276" data-name="Group 276" transform="translate(0 0)">
            <path id="Path_444" data-name="Path 444" d="M25.727-57.318H12.2v-101.76H25.727v41.12a22.636,22.636,0,0,1,7.866-5.917,24.3,24.3,0,0,1,9.555-1.749,27.784,27.784,0,0,1,12.474,2.719,28.248,28.248,0,0,1,9.405,7.456,32.82,32.82,0,0,1,5.927,11.155,45.04,45.04,0,0,1,2.029,13.663v33.314H59.32V-90.631a29.336,29.336,0,0,0-1.329-8.926,24.1,24.1,0,0,0-3.618-7.246,17.8,17.8,0,0,0-5.3-4.808,12.674,12.674,0,0,0-6.487-1.749,15.448,15.448,0,0,0-5.847,1.189,14.848,14.848,0,0,0-5.367,3.828,20.955,20.955,0,0,0-4.048,6.977,30.192,30.192,0,0,0-1.6,10.455Zm0,0" transform="translate(-12.203 159.078)" fill="#f0b"/>
          </g>
        </g>
      </g>
    </g>
  </g>
</svg>
